<svg width="30" height="30" viewBox="0 0 30 30" fill="none" xmlns="http://www.w3.org/2000/svg">
<g clip-path="url(#clip0_424_84)">
<path d="M22.725 13.6125C23.75 13.025 26.25 12.35 26.25 7.425C26.25 0.35 18.0625 0 18.0625 0H2.5V30C2.5 30 12.85 30 18.7875 30C24.3 30 27.525 26.3375 27.525 21C27.525 15.9125 23.875 14.3375 22.725 13.6125ZM10 6.25H15.7C15.7 6.25 17.8875 6.4125 17.8875 8.725C17.8875 11.0375 16.35 11.25 15.7 11.25C15.05 11.25 10 11.25 10 11.25V6.25ZM16.4625 23.75C15.7125 23.75 10 23.75 10 23.75V17.5H16.4625C16.4625 17.5 19.0375 17.625 19.0375 20.6C19.0375 23.1375 17.2 23.75 16.4625 23.75Z" fill="#6D7275"/>
</g>
<defs>
<clipPath id="clip0_424_84">
<rect width="30" height="30" fill="white"/>
</clipPath>
</defs>
</svg>
