<svg width="30" height="30" viewBox="0 0 30 30" fill="none" xmlns="http://www.w3.org/2000/svg">
<g clip-path="url(#clip0_426_118)">
<path d="M15 0.46875C6.97383 0.46875 0.46875 6.97383 0.46875 15C0.46875 23.0262 6.97383 29.5312 15 29.5312C23.0262 29.5312 29.5312 23.0262 29.5312 15C29.5312 6.97383 23.0262 0.46875 15 0.46875ZM22.5211 5.18578L22.5265 5.16867L22.7138 4.46484L22.7988 4.52719C23.1895 4.81746 23.5628 5.13025 23.917 5.46398L23.8943 5.53758L23.8891 5.55469C23.8342 5.71969 23.7206 5.85879 23.5699 5.94562C23.4193 6.03245 23.242 6.06098 23.0716 6.02578C22.9802 6.00706 22.8933 5.97044 22.8161 5.91802C22.7389 5.8656 22.6727 5.79842 22.6216 5.72034C22.5704 5.64227 22.5352 5.55484 22.5179 5.4631C22.5007 5.37136 22.5018 5.27711 22.5211 5.18578ZM19.2743 6.52547L19.2797 6.50836C19.3875 6.14508 19.7735 5.92945 20.148 6.02578C20.517 6.12797 20.7384 6.50836 20.6475 6.88289V6.9L19.887 9.70969L19.8246 9.65859C19.4487 9.3799 19.0478 9.13667 18.627 8.93203L19.2743 6.52547ZM16.7541 3.39773L16.7595 3.38062L17.1 2.115L17.2022 2.13187C17.6334 2.2057 18.0649 2.30227 18.4849 2.4157L18.1273 3.74953L18.1221 3.76664C18.0672 3.93164 17.9536 4.07074 17.8029 4.15758C17.6522 4.24441 17.4749 4.27293 17.3046 4.23773C17.2132 4.21902 17.1263 4.18239 17.0491 4.12997C16.9718 4.07755 16.9057 4.01037 16.8545 3.9323C16.8034 3.85422 16.7681 3.7668 16.7509 3.67505C16.7337 3.58331 16.7347 3.48906 16.7541 3.39773ZM11.4865 5.55469L11.4919 5.53758L12.3886 2.2057L12.4852 2.18883C12.9319 2.10185 13.3828 2.0374 13.8361 1.9957C13.8588 2.09789 13.8588 2.21133 13.8307 2.31352L13.8255 2.33063L12.8606 5.90672L12.8552 5.92383C12.8003 6.08883 12.6867 6.22793 12.536 6.31476C12.3853 6.40159 12.208 6.43012 12.0377 6.39492C11.9463 6.3762 11.8594 6.33958 11.7822 6.28716C11.7049 6.23474 11.6388 6.16756 11.5877 6.08948C11.5365 6.01141 11.5013 5.92398 11.484 5.83224C11.4668 5.7405 11.4679 5.64625 11.4872 5.55492L11.4865 5.55469ZM3.24445 13.2176C3.13664 13.5809 2.75062 13.7965 2.38172 13.6999C2.24466 13.6668 2.1215 13.5913 2.02969 13.4843C2.22317 11.8158 2.73787 10.2005 3.54539 8.72766C3.60211 8.72766 3.65883 8.73305 3.71555 8.75039C3.89487 8.79921 4.04804 8.91613 4.14243 9.07623C4.23682 9.23633 4.26496 9.42696 4.22086 9.6075L4.21547 9.62461L3.25055 13.2007L3.24445 13.2176ZM6.1507 15.1699V15.1873L5.18578 18.7634L5.18039 18.7802C5.07258 19.1379 4.70367 19.3479 4.33477 19.2628C3.95438 19.1719 3.72164 18.7861 3.81234 18.4057V18.3886L4.7775 14.8125L4.78266 14.7954C4.89047 14.4321 5.27648 14.2165 5.65125 14.313C6.02016 14.4152 6.24164 14.7952 6.1507 15.1699ZM6.42891 10.2996C6.04852 10.2089 5.81578 9.82289 5.90672 9.44273L5.91188 9.42562L6.8768 5.84953L6.88219 5.83242C6.99 5.46914 7.37602 5.25352 7.74492 5.35008C7.92349 5.39819 8.07622 5.5141 8.1706 5.67314C8.26498 5.83218 8.29355 6.02177 8.25023 6.20156L8.24484 6.22406L7.27992 9.80016L7.27453 9.81727C7.16672 10.1749 6.79781 10.3847 6.42891 10.2996ZM8.30203 22.5096L8.29664 22.5265C8.18883 22.8841 7.81992 23.0941 7.45102 23.0093C7.07063 22.9184 6.83789 22.5323 6.92883 22.152L6.93398 22.1348L7.89891 18.5587L7.9043 18.536L7.94977 18.4282C8.32461 18.753 8.73606 19.0331 9.17578 19.2626L8.30203 22.5096ZM11.2254 24.6949L11.22 24.712L10.5333 27.2721L10.4367 27.2323C10.0206 27.0787 9.61321 26.9025 9.21633 26.7045L9.85195 24.3431L9.85734 24.326C9.90934 24.1487 10.0288 23.9988 10.1902 23.9086C10.3515 23.8184 10.5418 23.7951 10.7201 23.8437C11.0948 23.9402 11.3161 24.3202 11.2254 24.6949ZM15.1931 22.8841L15.176 22.9638V22.9807L14.2111 26.5568L14.2057 26.5739C14.1508 26.7389 14.0372 26.8779 13.8866 26.9648C13.736 27.0516 13.5587 27.0801 13.3884 27.045C13.2041 27.0066 13.0425 26.8965 12.9392 26.739C12.8359 26.5815 12.7994 26.3894 12.8377 26.205V26.1879L13.8028 22.6118L13.808 22.5947C13.8607 22.4165 13.9812 22.2661 14.1436 22.1759C14.3061 22.0856 14.4974 22.0627 14.6766 22.1121C14.7713 22.1374 14.8597 22.1822 14.936 22.2439C15.0122 22.3055 15.0747 22.3824 15.1193 22.4698L15.142 22.572L15.176 22.7365L15.1987 22.856L15.1931 22.8841ZM24.6328 23.8095C22.612 26.0175 19.842 27.5273 16.7257 27.9417L16.6973 27.7542L16.6463 27.3797L16.6008 27.1073L16.5497 26.7497L16.4817 26.3126L16.4534 26.1424L16.391 25.728L16.3512 25.4838L16.3001 25.166L16.249 24.8595L16.1979 24.5641L16.1468 24.2749L16.1013 23.9911L16.0502 23.7185L16.0048 23.4574L15.9708 23.2645L15.9309 23.077L15.9084 22.958L15.863 22.7196L15.8288 22.5492L15.7891 22.3392L15.7552 22.1916L15.727 22.0498L15.6984 21.9136L15.6813 21.8227L15.6415 21.6525L15.6134 21.5276L15.585 21.4027L15.5623 21.3232L15.5341 21.2098L15.5112 21.102L15.483 20.9941L15.4547 20.8917L15.4376 20.8294L15.4092 20.7328L15.3865 20.6421L15.3694 20.5798L15.3466 20.5228L15.3298 20.4717L15.307 20.3923L15.2899 20.3355L15.2784 20.3016C15.2504 20.2105 15.2164 20.1214 15.1765 20.0348L15.1594 20.0009L15.2899 19.6601L14.7734 19.6772L14.6316 19.6826C9.94266 19.7791 6.91711 17.7865 6.91711 14.6648C6.91711 11.3555 10.2094 8.69344 14.4326 8.69344C16.4646 8.69344 18.2072 9.25547 19.5809 10.3282C20.7502 11.2423 21.6073 12.5023 22.05 13.927L22.0612 13.961L22.0725 14.0009L22.0952 14.0745L22.1292 14.2109L22.2202 14.5287L22.3165 14.892L22.4812 15.4936L22.7423 16.4473L23.1623 18.0138L23.6393 19.7962L24.4055 22.6627L24.6949 23.741L24.6328 23.8095ZM25.3481 9.6075L25.3427 9.62461L24.3778 13.2007L24.3724 13.2178C24.2646 13.5752 23.8957 13.7852 23.5266 13.7002C23.1464 13.6095 22.9137 13.2234 23.0044 12.843L23.0098 12.8259L23.9747 9.24984V9.23297C24.03 9.05659 24.151 8.90819 24.3126 8.81839C24.4741 8.7286 24.664 8.70425 24.843 8.75039C25.0217 8.80025 25.1741 8.91736 25.2684 9.07716C25.3626 9.23696 25.391 9.42702 25.3481 9.6075ZM27.7889 14.3756L26.8181 17.9517V17.9688C26.7159 18.3492 26.3243 18.5705 25.9439 18.4683C25.5638 18.3661 25.3423 17.9745 25.4447 17.5941L25.4498 17.5772L26.4148 14.0011L26.4202 13.984C26.528 13.6207 26.914 13.4051 27.2829 13.5014C27.4615 13.5495 27.6142 13.6654 27.7086 13.8245C27.8029 13.9835 27.8315 14.1731 27.7882 14.3529L27.7889 14.3756ZM16.249 11.9916C16.249 12.2324 16.1533 12.4634 15.983 12.6338C15.8127 12.8041 15.5817 12.8998 15.3408 12.8998C15.0999 12.8998 14.8689 12.8041 14.6986 12.6338C14.5283 12.4634 14.4326 12.2324 14.4326 11.9916C14.4326 11.7507 14.5283 11.5197 14.6986 11.3494C14.8689 11.179 15.0999 11.0834 15.3408 11.0834C15.5817 11.0834 15.8127 11.179 15.983 11.3494C16.1533 11.5197 16.249 11.7507 16.249 11.9916Z" fill="#6D7275"/>
</g>
<defs>
<clipPath id="clip0_426_118">
<rect width="30" height="30" fill="white"/>
</clipPath>
</defs>
</svg>
