<svg width="30" height="30" viewBox="0 0 30 30" fill="none" xmlns="http://www.w3.org/2000/svg">
<path d="M15 13.3125C16.2038 13.3125 17.1797 12.3366 17.1797 11.1328C17.1797 9.929 16.2038 8.95312 15 8.95312C13.7962 8.95312 12.8203 9.929 12.8203 11.1328C12.8203 12.3366 13.7962 13.3125 15 13.3125Z" fill="#5465FF"/>
<path d="M15 19.1484C16.7109 20.8125 18.3984 21.7969 19.7578 21.7969C20.2031 21.7969 20.625 21.7031 20.9766 21.4922C22.1953 20.7891 22.6406 19.0313 22.2188 16.5234C22.1484 16.0781 22.0547 15.6328 21.9375 15.1641C22.4062 15.0234 22.8281 14.8828 23.25 14.7422C25.6172 13.8281 26.9297 12.5625 26.9297 11.1797C26.9297 9.77344 25.6172 8.50781 23.25 7.61719C22.8281 7.45312 22.4062 7.3125 21.9375 7.19531C22.0547 6.72656 22.1484 6.28125 22.2188 5.83594C22.6172 3.28125 22.1719 1.5 20.9531 0.796875C20.6016 0.585938 20.1797 0.492188 19.7344 0.492188C18.3984 0.492188 16.6875 1.47656 14.9766 3.14062C13.2891 1.47656 11.6016 0.492188 10.2422 0.492188C9.79688 0.492188 9.375 0.585938 9.02344 0.796875C7.80469 1.5 7.35938 3.25781 7.78125 5.76562C7.85156 6.21094 7.94531 6.65625 8.0625 7.125C7.59375 7.26562 7.17187 7.40625 6.75 7.54688C4.38281 8.46094 3.07031 9.72656 3.07031 11.1094C3.07031 12.5156 4.38281 13.7813 6.75 14.6719C7.17187 14.8359 7.59375 14.9766 8.0625 15.0938C7.94531 15.5625 7.85156 16.0078 7.78125 16.4531C7.38281 18.9609 7.82812 20.7422 9.02344 21.4219C9.375 21.6328 9.79688 21.7266 10.2422 21.7266C11.6016 21.7734 13.2891 20.7891 15 19.1484ZM13.6875 15.9844C14.1094 16.0078 14.5547 16.0078 15 16.0078C15.4453 16.0078 15.8906 16.0078 16.3125 15.9844C15.8906 16.5469 15.4453 17.0625 15 17.5547C14.5547 17.0625 14.1094 16.5469 13.6875 15.9844ZM10.7813 13.5703C11.0156 13.9688 11.2266 14.3438 11.4844 14.7188C10.7578 14.625 10.0781 14.5078 9.42188 14.3672C9.63281 13.7344 9.86719 13.0781 10.1484 12.4219C10.3359 12.7969 10.5469 13.1953 10.7813 13.5703ZM9.42188 7.92187C10.0781 7.78125 10.7578 7.66406 11.4844 7.57031C11.25 7.94531 11.0156 8.32031 10.7813 8.71875C10.5469 9.11719 10.3359 9.49219 10.1484 9.89063C9.84375 9.21094 9.60938 8.55469 9.42188 7.92187ZM10.7109 11.1328C11.0156 10.5 11.3438 9.86719 11.7188 9.23438C12.0703 8.625 12.4688 8.01562 12.8672 7.40625C13.5703 7.35937 14.2734 7.33594 15 7.33594C15.75 7.33594 16.4531 7.35937 17.1328 7.40625C17.5547 8.01562 17.9297 8.625 18.2813 9.23438C18.6563 9.86719 18.9844 10.5 19.2891 11.1328C18.9844 11.7656 18.6563 12.3984 18.2813 13.0312C17.9297 13.6406 17.5313 14.25 17.1328 14.8594C16.4297 14.9063 15.7266 14.9297 15 14.9297C14.25 14.9297 13.5469 14.9063 12.8672 14.8594C12.4453 14.25 12.0703 13.6406 11.7188 13.0312C11.3438 12.3984 11.0156 11.7656 10.7109 11.1328ZM19.875 9.86719L19.2422 8.69531C19.0078 8.29687 18.7969 7.92188 18.5391 7.54688C19.2656 7.64063 19.9453 7.75781 20.6016 7.89844C20.3906 8.55469 20.1563 9.21094 19.875 9.86719ZM19.875 12.3984C20.1563 13.0547 20.3906 13.7109 20.6016 14.3438C19.9453 14.4844 19.2656 14.6016 18.5391 14.6953C18.7734 14.3203 19.0078 13.9453 19.2422 13.5469C19.4531 13.1953 19.6641 12.7969 19.875 12.3984ZM20.4141 20.5312C20.2266 20.6484 19.9922 20.6953 19.7344 20.6953C18.5859 20.6953 17.1562 19.7578 15.75 18.3516C16.4297 17.625 17.0859 16.8047 17.7422 15.8906C18.8437 15.7969 19.8984 15.6328 20.8828 15.3984C21 15.8203 21.0703 16.2422 21.1406 16.6641C21.4687 18.6562 21.2109 20.0859 20.4141 20.5312ZM21.6328 8.17969C24.2578 8.92969 25.8281 10.0781 25.8281 11.1328C25.8281 12.0469 24.75 12.9609 22.8516 13.6875C22.4766 13.8281 22.0547 13.9688 21.6328 14.0859C21.3281 13.125 20.9531 12.1406 20.4844 11.1328C20.9531 10.125 21.3516 9.14063 21.6328 8.17969ZM19.7578 1.57031C20.0156 1.57031 20.2266 1.61719 20.4375 1.73438C21.2109 2.17969 21.4922 3.58594 21.1641 5.60156C21.0938 6 21 6.42187 20.9062 6.86719C19.9219 6.65625 18.8672 6.49219 17.7656 6.375C17.1328 5.46094 16.4531 4.64063 15.7734 3.91406C17.1797 2.53125 18.6094 1.57031 19.7578 1.57031ZM16.3125 6.28125C15.8906 6.25781 15.4453 6.25781 15 6.25781C14.5547 6.25781 14.1094 6.25781 13.6875 6.28125C14.1094 5.71875 14.5547 5.20312 15 4.71094C15.4453 5.20312 15.8906 5.74219 16.3125 6.28125ZM9.58594 1.73438C9.77344 1.61719 10.0078 1.57031 10.2656 1.57031C11.4141 1.57031 12.8437 2.50781 14.25 3.91406C13.5703 4.64063 12.9141 5.46094 12.2578 6.375C11.1562 6.46875 10.1016 6.63281 9.11719 6.86719C9 6.44531 8.92969 6.02344 8.85937 5.60156C8.53125 3.60937 8.78906 2.20313 9.58594 1.73438ZM8.36719 14.0859C5.74219 13.3359 4.17187 12.1875 4.17187 11.1328C4.17187 10.2188 5.25 9.30469 7.14844 8.57812C7.52344 8.4375 7.94531 8.29688 8.36719 8.17969C8.67188 9.14063 9.04687 10.125 9.51562 11.1328C9.04687 12.1406 8.64844 13.1484 8.36719 14.0859ZM8.85937 16.6641C8.92969 16.2656 9.02344 15.8437 9.11719 15.3984C10.1016 15.6094 11.1562 15.7734 12.2578 15.8906C12.8906 16.8047 13.5703 17.625 14.25 18.3516C12.8437 19.7344 11.4141 20.6953 10.2656 20.6953C10.0078 20.6953 9.79688 20.6484 9.58594 20.5312C8.78906 20.0859 8.53125 18.6562 8.85937 16.6641ZM7.875 26.3203C8.39062 25.6875 8.41406 24.9844 8.13281 24.2812C7.85156 23.5781 7.26562 23.25 6.53906 23.2266C5.67187 23.2031 4.78125 23.2266 3.91406 23.2266H3.75V29.2969H4.45312V27H5.55469C5.69531 27 5.8125 27.0469 5.88281 27.1641L7.28906 29.3437C7.3125 29.3906 7.38281 29.4609 7.42969 29.4609H8.34375C7.78125 28.5937 7.24219 27.7734 6.67969 26.9297C7.17187 26.8594 7.59375 26.6953 7.875 26.3203ZM4.45312 26.2734V23.9531H4.71094C5.25 23.9531 5.8125 23.9297 6.35156 23.9766C6.98438 24 7.42969 24.4922 7.42969 25.125C7.42969 25.7578 6.91406 26.25 6.28125 26.2734C5.71875 26.2969 5.15625 26.2734 4.45312 26.2734ZM13.5234 26.5781C13.1484 24.9375 11.6484 24.5156 10.5 25.0313C9.60937 25.4297 9.21094 26.2031 9.1875 27.1641C9.16406 27.8906 9.375 28.5469 9.9375 29.0391C10.5703 29.6016 11.3437 29.6719 12.1406 29.5313C12.5859 29.4375 12.9844 29.2266 13.2891 28.8984C13.1719 28.7344 13.0547 28.5703 12.9375 28.4297C12.2812 28.9922 11.5547 29.1797 10.7578 28.8047C10.2422 28.5469 9.98438 27.9141 9.9375 27.4453H13.5703V27.1406C13.5938 26.9297 13.5703 26.7422 13.5234 26.5781ZM9.98437 26.9531C9.91406 26.25 10.6172 25.5 11.3906 25.5C12.2812 25.4766 12.8438 26.0156 12.8672 26.9531H9.98437ZM17.1797 24.9141C16.8281 24.8438 16.4531 24.8203 16.1016 24.8438C15.5391 24.8906 15.0469 25.1484 14.6484 25.5703C14.7656 25.7344 14.8594 25.8984 15 26.0859C15.0469 26.0391 15.0937 25.9922 15.1406 25.9688C15.5156 25.6172 15.9609 25.4297 16.5 25.4766C16.9219 25.5 17.3203 25.6406 17.4375 26.0625C17.5313 26.3906 17.5078 26.7422 17.5313 27.0938C17.4609 27.0938 17.4375 27.0703 17.4141 27.0469C16.8516 26.5781 16.2188 26.4844 15.5391 26.6484C14.9063 26.8125 14.5078 27.3047 14.4609 27.9375C14.4141 28.6641 14.7422 29.2031 15.375 29.4609C15.7734 29.625 16.2188 29.625 16.6406 29.5313C16.9688 29.4609 17.1094 29.2734 17.5781 29.0156V29.3203H18.2344C18.2344 28.3828 18.2578 27.2344 18.2344 26.1562C18.2344 25.4766 17.8359 25.0547 17.1797 24.9141ZM17.5078 27.8672C17.4844 27.9375 17.5078 28.0078 17.5078 28.0781C17.5078 28.5703 17.3906 28.7344 16.9219 28.9219C16.5937 29.0391 16.2422 29.0859 15.8906 28.9688C15.4922 28.8516 15.2109 28.5 15.2109 28.1016C15.1875 27.7031 15.4453 27.3047 15.8438 27.1875C16.3828 27 16.875 27.1172 17.3203 27.4453C17.4609 27.5625 17.5547 27.6797 17.5078 27.8672ZM21.1641 25.5469C21.7734 25.3594 22.3359 25.4766 22.7578 25.9922L22.8281 26.0391C22.9922 25.8984 23.1328 25.7578 23.3203 25.5937C23.25 25.5234 23.2266 25.4766 23.1797 25.4063C22.5 24.6797 21.1641 24.5859 20.3438 25.1719C19.1953 26.0156 19.2188 27.6562 19.7813 28.5234C20.3203 29.3437 21.0938 29.625 22.0078 29.5078C22.5469 29.4375 22.9922 29.1797 23.3438 28.7344C23.1797 28.5937 23.0156 28.4531 22.8516 28.2891C22.8047 28.3359 22.7813 28.3594 22.7578 28.4062C22.125 29.1094 21.0703 29.0391 20.5078 28.2891C20.1797 27.8437 20.1094 27.3281 20.2031 26.8125C20.25 26.2266 20.5547 25.7578 21.1641 25.5469ZM26.0391 28.7344C25.9922 28.7578 25.9688 28.7813 25.9688 28.7813C25.7813 28.9219 25.5938 28.9453 25.3828 28.875C25.1719 28.7812 25.1484 28.5937 25.125 28.4062V25.7344C25.125 25.6875 25.125 25.7813 25.1484 25.5469H26.0391V24.8438H25.1016V23.6719H24.3984V24.9375H23.7891C23.7422 24.9375 23.6719 24.9844 23.6719 25.0313C23.6484 25.1953 23.6719 25.3125 23.6719 25.5469H24.4219V28.5469C24.4219 28.9219 24.5156 29.25 24.8438 29.4375C25.1953 29.6484 25.875 29.6016 26.1797 29.3437C26.2266 29.3203 26.25 29.2266 26.25 29.2031C26.1797 29.0625 26.1094 28.8984 26.0391 28.7344Z" fill="#5465FF"/>
</svg>
