<svg width="30" height="30" viewBox="0 0 30 30" fill="none" xmlns="http://www.w3.org/2000/svg">
<path opacity="0.6" d="M14.5839 2.5H10.4164C9.31126 2.5 8.2514 2.93901 7.46996 3.72045C6.68852 4.50189 6.24951 5.56175 6.24951 6.66687C6.24951 7.772 6.68852 8.83186 7.46996 9.6133C8.2514 10.3947 9.31126 10.8337 10.4164 10.8337H14.5839V2.5Z" fill="#6D7275"/>
<path opacity="0.4" d="M14.5839 10.8325H10.4164C9.31126 10.8325 8.2514 11.2715 7.46996 12.053C6.68852 12.8344 6.24951 13.8943 6.24951 14.9994C6.24951 16.1045 6.68852 17.1644 7.46996 17.9458C8.2514 18.7273 9.31126 19.1663 10.4164 19.1663H14.5839V10.8325Z" fill="#6D7275"/>
<path d="M22.9163 15C22.9163 16.1051 22.4773 17.165 21.6958 17.9464C20.9144 18.7279 19.8545 19.1669 18.7494 19.1669C17.6443 19.1669 16.5844 18.7279 15.803 17.9464C15.0215 17.165 14.5825 16.1051 14.5825 15C14.5825 13.8949 15.0215 12.835 15.803 12.0536C16.5844 11.2721 17.6443 10.8331 18.7494 10.8331C19.8545 10.8331 20.9144 11.2721 21.6958 12.0536C22.4773 12.835 22.9163 13.8949 22.9163 15Z" fill="#6D7275"/>
<path opacity="0.2" d="M10.4165 19.1675H14.584V23.3338C14.5837 24.1577 14.3392 24.963 13.8813 25.6479C13.4234 26.3329 12.7727 26.8667 12.0115 27.1819C11.2503 27.497 10.4127 27.5794 9.60462 27.4186C8.79656 27.2578 8.05432 26.8611 7.47173 26.2785C6.88915 25.6959 6.49238 24.9537 6.33158 24.1456C6.17079 23.3376 6.25319 22.5 6.56836 21.7387C6.88354 20.9775 7.41735 20.3268 8.10229 19.8689C8.78724 19.411 9.59257 19.1678 10.4165 19.1675Z" fill="#6D7275"/>
<path opacity="0.8" d="M14.5825 2.5H18.7488C19.8539 2.5 20.9138 2.93901 21.6952 3.72045C22.4766 4.50189 22.9156 5.56175 22.9156 6.66687C22.9156 7.772 22.4766 8.83186 21.6952 9.6133C20.9138 10.3947 19.8539 10.8337 18.7488 10.8337H14.5825V2.5Z" fill="#6D7275"/>
</svg>
