<svg width="30" height="30" viewBox="0 0 30 30" fill="none" xmlns="http://www.w3.org/2000/svg">
<g clip-path="url(#clip0_426_118)">
<path d="M0 0.781494H2.4218C10.2745 0.781494 16.6403 7.14735 16.6403 15C16.6403 22.8526 10.2745 29.2184 2.4218 29.2184H0V22.9685H2.4218C6.82277 22.9685 10.3904 19.4009 10.3904 15C10.3904 10.5991 6.82277 7.0314 2.4218 7.0314H0V0.781494ZM21.3277 18.1249H18.9059C19.2973 16.06 19.2973 13.9399 18.9059 11.875H21.3277C24.3308 11.8786 24.7153 7.1804 21.3277 7.0314H17.1863C15.8073 4.4763 13.7888 2.32281 11.3282 0.781494H21.328C26.1172 0.781494 29.9997 4.66392 29.9998 9.45314C29.9998 11.4797 29.2901 13.4422 27.9938 15C31.0572 18.6814 30.5562 24.149 26.8748 27.2124C25.3171 28.5087 23.3546 29.2185 21.328 29.2184H11.3282C13.7888 27.6771 15.8073 25.5236 17.1863 22.9685H21.3277C24.5343 22.9685 24.5343 18.1249 21.3277 18.1249H21.3277Z" fill="#6D7275"/>
</g>
<defs>
<clipPath id="clip0_426_118">
<rect width="30" height="30" fill="white"/>
</clipPath>
</defs>
</svg>
