<svg width="32" height="32" viewBox="0 0 32 32" fill="none" xmlns="http://www.w3.org/2000/svg">
<path d="M16 2C10.477 2 6.00001 6.477 6.00001 12C5.99857 13.4144 6.29784 14.8129 6.87798 16.1028C7.45812 17.3928 8.30587 18.5446 9.36501 19.482C9.70801 19.786 9.92601 20.127 10.005 20.468L10.82 24H21.18L21.995 20.468C22.074 20.128 22.292 19.786 22.635 19.482C23.6941 18.5446 24.5419 17.3928 25.122 16.1028C25.7022 14.8129 26.0014 13.4144 26 12C26 6.477 21.523 2 16 2ZM20.719 26H11.28L11.577 27.287C11.755 28.0583 12.1892 28.7465 12.8087 29.2392C13.4282 29.732 14.1964 30.0001 14.988 30H17.011C17.8024 29.9999 18.5704 29.7316 19.1897 29.2389C19.809 28.7462 20.2431 28.0581 20.421 27.287L20.719 26Z" fill="#6D7275"/>
</svg>
