<svg width="60" height="15" viewBox="0 0 60 15" fill="none" xmlns="http://www.w3.org/2000/svg">
<g clip-path="url(#clip0_426_118)">
<path d="M42.7887 5.75087C41.9055 5.75087 41.275 6.05263 40.9656 6.62391L40.7992 6.93329V5.89981H39.362V12.1822H40.8739V8.44454C40.8739 7.55157 41.3592 7.03934 42.2046 7.03934C43.0109 7.03934 43.4732 7.53809 43.4732 8.40739V12.1821H44.9857V8.13774C44.9857 6.64196 44.1645 5.75087 42.7887 5.75087ZM35.4569 5.75087C33.6728 5.75087 32.568 6.86415 32.568 8.65583V9.5379C32.568 11.2609 33.6857 12.3311 35.4851 12.3311C36.6887 12.3311 37.5324 11.8901 38.0632 10.9829L37.126 10.4436C36.7337 10.9669 36.1071 11.291 35.4857 11.291C34.5748 11.291 34.031 10.7288 34.031 9.78634V9.53661H38.2507V8.4947C38.2507 6.82559 37.1548 5.75087 35.4582 5.75087H35.4569ZM36.8748 8.52095H34.0259V8.37013C34.0259 7.33595 34.5337 6.76524 35.4556 6.76524C36.3434 6.76524 36.8737 7.32751 36.8737 8.26993L36.8748 8.52095ZM59.9999 4.86563V3.66388H54.7704V4.86563H56.6039V10.9778H54.7704V12.1795H59.9999V10.9778H58.1658V4.86563H59.9999ZM20.3481 3.49056C18.0126 3.49056 16.5606 4.94591 16.5606 7.28977V8.55692C16.5606 10.9001 18.012 12.3561 20.3481 12.3561C22.6842 12.3561 24.1357 10.9001 24.1357 8.55692V7.28966C24.1351 4.94333 22.6817 3.49056 20.3481 3.49056ZM22.5732 8.64364C22.5732 10.1998 21.7623 11.092 20.3481 11.092C18.9339 11.092 18.1237 10.1998 18.1237 8.64364V7.20235C18.1237 5.64622 18.9352 4.75395 20.3488 4.75395C21.7623 4.75395 22.5739 5.64622 22.5739 7.20235L22.5732 8.64364ZM28.8844 5.75087C28.0909 5.75087 27.404 6.07958 27.0457 6.62977L26.8833 6.88009V5.89981H25.4454V14.3438H26.9578V11.2852L27.1196 11.5253C27.4599 12.0299 28.1243 12.3309 28.8973 12.3309C30.201 12.3309 31.5164 11.479 31.5164 9.57493V8.50677C31.5164 7.13485 30.7056 5.75087 28.8844 5.75087ZM30.004 9.50122C30.004 10.5137 29.4134 11.1428 28.4632 11.1428C27.5773 11.1428 26.9591 10.4777 26.9591 9.5263V8.5813C26.9591 7.61837 27.5824 6.94044 28.4761 6.94044C29.4191 6.94044 30.0052 7.56891 30.0052 8.5813L30.004 9.50122ZM49.1648 3.66446L46.1135 12.1821H47.6498L48.2339 10.3563H51.7416L51.7475 10.3744L52.3252 12.1821H53.8608L50.8043 3.66376L49.1648 3.66446ZM48.6088 9.15528L49.9852 4.84888L51.3475 9.15528H48.6088ZM13.6036 6.04231C13.7692 5.54542 13.8266 5.01889 13.7721 4.49799C13.7177 3.97708 13.5525 3.47383 13.2878 3.02192C12.8948 2.3389 12.2952 1.79819 11.5753 1.47759C10.8555 1.157 10.0525 1.07306 9.28186 1.23786C8.93431 0.845926 8.50705 0.53275 8.02868 0.319292C7.55031 0.105834 7.03186 -0.00298275 6.50803 0.000125807C5.71988 -0.00164052 4.95153 0.246984 4.31381 0.710138C3.6761 1.17329 3.20197 1.82704 2.95983 2.57708C2.44674 2.6823 1.96202 2.89587 1.53811 3.2035C1.11419 3.51113 0.760848 3.90573 0.501706 4.36091C0.106628 5.04278 -0.0619134 5.83243 0.0203414 6.61619C0.102596 7.39995 0.431405 8.13739 0.959441 8.72239C0.794529 9.21887 0.737397 9.74482 0.791857 10.2651C0.846317 10.7854 1.01112 11.2882 1.27526 11.7397C1.6679 12.424 2.26775 12.9659 2.98828 13.2872C3.70882 13.6086 4.51279 13.6927 5.28425 13.5275C5.63151 13.919 6.05828 14.2319 6.53609 14.4454C7.01389 14.6588 7.53172 14.7679 8.05503 14.7653C8.84319 14.7671 9.61155 14.5184 10.2493 14.0553C10.887 13.5921 11.3611 12.9384 11.6032 12.1883C12.1162 12.083 12.6008 11.8694 13.0246 11.5618C13.4484 11.2541 13.8016 10.8595 14.0607 10.4044C14.4568 9.72273 14.626 8.93282 14.5438 8.14873C14.4616 7.36464 14.1324 6.62706 13.6036 6.04231ZM8.05503 13.8025C7.4078 13.803 6.78103 13.5758 6.28456 13.1605C6.30636 13.1483 6.34878 13.1271 6.37315 13.1111L9.31339 11.4137C9.38717 11.3718 9.44844 11.311 9.49087 11.2375C9.53331 11.164 9.55537 11.0806 9.55479 10.9957V6.84997L10.797 7.56704C10.8037 7.57022 10.8095 7.57509 10.8137 7.58117C10.818 7.58725 10.8206 7.59433 10.8214 7.60173V11.033C10.8214 12.5612 9.58339 13.8007 8.05503 13.8025ZM2.11104 11.2641C1.78697 10.7039 1.67 10.0477 1.78057 9.41005C1.80225 9.42352 1.84081 9.44661 1.86776 9.46196L4.8087 11.16C4.88192 11.2029 4.96525 11.2255 5.05011 11.2255C5.13496 11.2255 5.21829 11.2029 5.29151 11.16L8.87921 9.08532V10.5195C8.87986 10.5268 8.87861 10.5342 8.87557 10.541C8.87253 10.5477 8.86781 10.5535 8.86186 10.5579L5.88975 12.2733C4.56647 13.0352 2.87616 12.5823 2.11104 11.2608V11.2641ZM1.34077 4.84431C1.66335 4.28331 2.1731 3.85376 2.78065 3.63095V7.12583C2.7802 7.21065 2.80233 7.29407 2.84475 7.36753C2.88717 7.44098 2.94836 7.50183 3.02206 7.54384L6.61069 9.61606L5.36393 10.3357C5.35786 10.3398 5.35086 10.3423 5.34357 10.343C5.33628 10.3436 5.32894 10.3425 5.32221 10.3396L2.35057 8.62372C1.02846 7.85884 0.575417 6.16782 1.33807 4.84442L1.34077 4.84431ZM11.548 7.2197L7.95928 5.14735L9.2003 4.42958C9.20638 4.42556 9.21336 4.42311 9.22062 4.42243C9.22787 4.42176 9.23518 4.42288 9.2419 4.42571L12.2137 6.14169C12.6688 6.40466 13.0397 6.79187 13.2828 7.25797C13.5259 7.72408 13.6312 8.24979 13.5863 8.77356C13.5414 9.29733 13.3483 9.79748 13.0294 10.2155C12.7106 10.6334 12.2793 10.9519 11.786 11.1336V7.63958C11.787 7.55455 11.7653 7.47081 11.7231 7.397C11.6808 7.32318 11.6197 7.26198 11.5459 7.2197H11.548ZM12.7851 5.35794C12.7562 5.34018 12.7271 5.32283 12.6978 5.30591L9.75694 3.60798C9.68372 3.56509 9.60039 3.54248 9.51553 3.54248C9.43068 3.54248 9.34735 3.56509 9.27413 3.60798L5.6855 5.67962V4.24606C5.68527 4.23869 5.68678 4.23136 5.68992 4.22468C5.69305 4.218 5.69772 4.21216 5.70354 4.20763L8.67518 2.49224C9.13051 2.22973 9.65118 2.10234 10.1763 2.12498C10.7014 2.14762 11.2091 2.31935 11.6402 2.62007C12.0712 2.92079 12.4077 3.33807 12.6102 3.82305C12.8128 4.30804 12.8729 4.84068 12.7838 5.35864L12.7851 5.35794ZM5.00827 7.91555L3.7655 7.19849C3.75912 7.19497 3.75365 7.19001 3.74952 7.18401C3.74539 7.17801 3.74271 7.17113 3.74171 7.16391V3.73243C3.74128 3.20651 3.89079 2.69137 4.17271 2.24739C4.45463 1.80341 4.85727 1.449 5.33343 1.22571C5.80959 1.00241 6.33954 0.919479 6.86116 0.986638C7.38277 1.0538 7.87443 1.26826 8.2785 1.60489C8.25671 1.6172 8.21757 1.63829 8.18991 1.65434L5.24968 3.35169C5.17598 3.39369 5.11479 3.45454 5.07236 3.528C5.02994 3.60146 5.00782 3.68487 5.00827 3.7697V7.91555ZM5.68303 6.46032L7.28147 5.53712L8.87932 6.46032V8.30532L7.28089 9.22841L5.68245 8.30532L5.68303 6.46032Z" fill="#5465FF"/>
</g>
<defs>
<clipPath id="clip0_426_118">
<rect width="60" height="14.7656" fill="white"/>
</clipPath>
</defs>
</svg>
