<svg width="36" height="30" viewBox="0 0 36 30" fill="none" xmlns="http://www.w3.org/2000/svg">
<g clip-path="url(#clip0_426_118)">
<path d="M33.3862 2.89806C38.5735 15.5599 33.3862 22.3675 28.9979 26.1208C30.0704 29.8743 25.7958 30.6486 24.1722 28.8018C19.3925 30.4501 9.68193 30.3965 2.72415 23.4399C-1.02933 19.6864 1.89832 11.3367 11.8394 5.74528C20.4187 0.919445 28.9979 -1.76167 33.3862 2.89806Z" fill="#5465FF"/>
<path d="M11.8395 5.74525C19.1831 0.922609 27.9523 -1.0967 31.5373 2.024C37.0409 6.81761 19.8824 17.6618 13.4481 20.2226C6.47741 22.9969 10.2309 29.3379 6.47741 29.3379C3.26019 29.3379 3.79644 25.0484 0.919079 21.0268C-0.780504 18.6515 3.43186 11.2659 11.8395 5.74525Z" fill="white"/>
<path d="M11.5454 5.29696C10.1461 6.21617 8.80899 7.2266 7.54263 8.32168L6.93888 8.85557C1.69249 13.5977 -1.21071 18.9715 0.483323 21.3389C0.642191 21.5611 0.793617 21.7886 0.937351 22.0208C1.31513 22.6307 1.64013 23.2671 1.95124 23.9858L2.17791 24.5306L2.98166 26.6561C3.86013 28.9324 4.70888 29.8742 6.47763 29.8742C8.09166 29.8742 8.65291 29.1088 9.05055 27.136L9.23499 26.171L9.34832 25.6196L9.41707 25.3238L9.48582 25.065L9.55902 24.8265L9.64138 24.591L9.73721 24.3413C10.3414 22.8208 11.4292 21.6767 13.3382 20.8489L13.6465 20.7208C17.3562 19.2445 23.2519 15.7186 27.3107 12.3745L27.8728 11.9031C28.1412 11.6741 28.4062 11.4412 28.6679 11.2046L29.1651 10.7453C33.0372 7.09043 34.3407 3.9321 32.0382 1.75432L31.8896 1.6196C28.183 -1.60693 19.3444 0.175574 11.5454 5.29696ZM31.1855 2.42849C32.9944 4.00405 31.9307 6.64849 28.4639 9.93266L27.9764 10.3843C27.8925 10.4603 27.8075 10.5365 27.7214 10.6131L27.1896 11.0763C27.004 11.2348 26.8171 11.3916 26.6287 11.5468C22.7964 14.7045 17.2665 18.0424 13.6444 19.5631L13.25 19.7245C10.8726 20.6707 9.48471 22.0724 8.74068 23.9453L8.58471 24.3589L8.4986 24.6192L8.42082 24.8886C8.40832 24.9353 8.39596 24.9831 8.3836 25.0325L8.30916 25.35L8.18832 25.9352L8.00055 26.9195L7.9186 27.3045C7.64388 28.4972 7.33291 28.8018 6.47763 28.8018C5.33346 28.8018 4.76791 28.2296 4.07721 26.5115L3.26846 24.3749L3.12957 24.0228C2.74013 23.0665 2.33721 22.2443 1.84902 21.4561C1.69279 21.2037 1.52821 20.9565 1.35555 20.715C0.427906 19.4188 1.60624 16.4967 4.18402 13.307L4.61416 12.7875C6.53055 10.5285 9.11874 8.17335 12.134 6.19349C19.5743 1.30738 27.9561 -0.38276 31.1855 2.42849Z" fill="#5465FF"/>
<path d="M27.427 2.8197C32.4082 4.16012 27.0354 8.92706 22.8124 11.9737C18.8101 14.8607 15.7281 16.4884 14.3157 17.1534C13.9232 17.3389 12.5817 14.7383 12.5817 16.0809C12.5817 16.5282 11.831 18.4809 11.58 18.5754C10.1161 19.1244 7.05126 19.9587 5.32251 19.9587C1.57876 19.9587 3.26029 14.8607 8.55473 10.1764C9.5114 9.33025 10.1397 9.4847 11.0031 9.4847C10.4272 8.65567 10.4304 8.50137 11.4353 7.82678C15.9039 4.82289 21.4911 2.81748 23.8633 2.4422C24.2558 2.4572 24.7426 2.81748 24.7426 3.11678C25.1824 2.96664 26.9893 2.70067 27.427 2.81859V2.8197Z" fill="#5465FF"/>
<path d="M12.1582 11.0965C13.2145 10.2954 13.9213 10.0133 14.4092 8.38761C15.0161 8.51733 15.3111 8.30178 15.7925 7.6358C16.14 8.13553 17.5696 8.28789 18.4231 8.38761C17.6564 8.87122 17.2897 9.30122 16.8661 10.6459C15.296 9.9908 13.4697 10.3222 12.1582 11.0965Z" fill="white"/>
</g>
<defs>
<clipPath id="clip0_426_118">
<rect width="35.5556" height="30" fill="white"/>
</clipPath>
</defs>
</svg>
