<svg width="30" height="30" viewBox="0 0 30 30" fill="none" xmlns="http://www.w3.org/2000/svg">
<g clip-path="url(#clip0_386_37)">
<path d="M29.8023 22.7922L17.3438 0.943464C17.1889 0.674629 16.949 0.445356 16.6493 0.279906C16.3496 0.114456 16.0014 0.0189845 15.6414 0.00359306C15.2807 -0.0163673 14.9203 0.0457216 14.5994 0.183107C14.2784 0.320493 14.0093 0.527916 13.8211 0.782819L0.308569 18.8563C0.103104 19.1292 -0.00389734 19.4448 0.00010849 19.7661C0.00411432 20.0874 0.118961 20.4012 0.331186 20.6705L6.93751 29.119C7.18745 29.4361 7.55484 29.6781 7.98489 29.8087C8.41494 29.9393 8.8846 29.9516 9.3238 29.8437L28.4956 25.1606C28.7842 25.0909 29.0514 24.9709 29.2791 24.8086C29.5067 24.6462 29.6895 24.4455 29.8151 24.2198C29.9389 23.9953 30.002 23.7512 30 23.5045C29.9979 23.2578 29.9308 23.0145 29.8033 22.7914L29.8023 22.7922ZM27.013 23.7292L10.7447 27.7018C10.2484 27.8238 9.77205 27.4685 9.87529 27.0549L15.6876 4.07256C15.7962 3.64259 16.5152 3.57446 16.7426 3.9724L27.502 22.8408C27.5496 22.9248 27.5745 23.0164 27.5751 23.1092C27.5756 23.202 27.5518 23.2938 27.5052 23.3782C27.4587 23.4627 27.3905 23.5378 27.3054 23.5984C27.2202 23.659 27.1202 23.7036 27.0122 23.7291L27.013 23.7292Z" fill="#5465FF"/>
</g>
<defs>
<clipPath id="clip0_386_37">
<rect width="30" height="30" fill="white"/>
</clipPath>
</defs>
</svg>
