<svg width="60" height="12" viewBox="0 0 60 12" fill="none" xmlns="http://www.w3.org/2000/svg">
<path d="M50.3371 0.00470914V1.80732H46.1913V11.291H44.1183V1.80743H39.8862V0.00470914H50.3371ZM50.8031 10.2159C50.9491 10.2159 51.0769 10.2649 51.185 10.3633C51.2947 10.4615 51.3493 10.5792 51.3509 10.7164C51.3506 10.8063 51.3238 10.8945 51.2735 10.9712C51.2242 11.0469 51.1551 11.1097 51.0727 11.1535C50.9912 11.199 50.898 11.2227 50.8031 11.2221C50.6512 11.2221 50.5221 11.1729 50.4141 11.0747C50.3059 10.9764 50.2523 10.8573 50.2538 10.7164C50.2525 10.5792 50.3059 10.4615 50.4141 10.3633C50.5221 10.2649 50.6512 10.2159 50.8031 10.2159ZM9.71672 11.291L2.07305 2.41239V11.2864H0V0H2.59113L12.2481 11.2066L12.2482 1.80743L12.2474 0.00470914H22.6982V1.80732H14.3211V4.70728H21.058V6.51H14.3211V9.48837H22.6983V11.291H9.71672ZM29.342 6.49281L30.7005 8.07125L27.9168 11.3043H25.1962L29.342 6.49281ZM27.9168 0.00941828L31.4242 4.08009L34.9206 0.021903L37.6335 0.01807L32.7824 5.65645L37.6413 11.2957H34.9206L25.204 0.00941828H27.9168ZM54.3411 6.46751H55.2596V9.77486C55.2584 10.0788 55.1879 10.3386 55.0505 10.5573C54.9114 10.7758 54.7188 10.9427 54.4718 11.0605C54.2259 11.1768 53.938 11.2363 53.6107 11.2363C53.3115 11.2363 53.0434 11.186 52.8046 11.0876C52.5657 10.9893 52.3762 10.8419 52.2371 10.6478C52.0965 10.4539 52.0277 10.2119 52.0277 9.92227H52.9479C52.9493 10.049 52.9801 10.1588 53.0391 10.2508C53.0971 10.3416 53.182 10.4148 53.2835 10.4615C53.3888 10.5108 53.5097 10.5353 53.6457 10.5353C53.7934 10.5353 53.9197 10.5069 54.0223 10.4486C54.1247 10.3917 54.2034 10.3063 54.2583 10.1926C54.3116 10.08 54.3397 9.94034 54.3411 9.77475V6.46751ZM59.0392 7.76088C59.0169 7.56047 58.9185 7.40387 58.7471 7.29271C58.5743 7.18013 58.3511 7.1246 58.0771 7.1246C57.8849 7.1246 57.7191 7.15176 57.5814 7.20477C57.4438 7.25909 57.337 7.33148 57.2639 7.42336C57.191 7.51513 57.1545 7.61994 57.1515 7.73767C57.1515 7.8359 57.1768 7.92132 57.2259 7.9924C57.2769 8.06692 57.3456 8.12937 57.4268 8.17485C57.515 8.22666 57.6093 8.26873 57.7078 8.30024C57.8116 8.33387 57.9157 8.36234 58.0195 8.38567L58.4985 8.49562C58.691 8.53702 58.8778 8.59254 59.0562 8.66372C59.2344 8.73359 59.396 8.82285 59.5378 8.93017C59.6797 9.0375 59.7921 9.16684 59.875 9.31819C59.9578 9.46953 60 9.64673 60 9.85109C60 10.1265 59.9242 10.3684 59.771 10.5779C59.618 10.7862 59.3974 10.9492 59.1081 11.0669C58.8202 11.1833 58.4718 11.2428 58.0617 11.2428C57.6656 11.2428 57.3202 11.1859 57.0293 11.0721C56.7373 10.9596 56.5097 10.7939 56.3453 10.5766C56.181 10.3593 56.0925 10.0942 56.0798 9.78253H56.9902C57.0027 9.94549 57.0589 10.0813 57.1545 10.1912C57.2512 10.2999 57.3777 10.38 57.5323 10.4344C57.6881 10.4875 57.8623 10.5146 58.0547 10.5146C58.2555 10.5146 58.4325 10.4862 58.5855 10.4305C58.7373 10.3749 58.8566 10.2974 58.9424 10.1964C59.0295 10.0967 59.073 9.97911 59.0745 9.84462C59.073 9.72175 59.0336 9.61957 58.9577 9.5393C58.8805 9.45913 58.7737 9.39189 58.6375 9.33757C58.5 9.28325 58.3398 9.23408 58.1572 9.19148L57.5757 9.05436C57.1557 8.95471 56.8229 8.80347 56.5799 8.60031C56.3355 8.39727 56.2147 8.12831 56.2147 7.79067C56.2147 7.51393 56.2962 7.27069 56.4606 7.0624C56.6235 6.85432 56.8468 6.69257 57.1291 6.57747C57.4127 6.46105 57.7331 6.4041 58.0897 6.4041C58.4522 6.4041 58.7695 6.46105 59.0435 6.57747C59.3173 6.69257 59.5323 6.8529 59.688 7.05725C59.844 7.26171 59.9256 7.49575 59.9298 7.76088H59.0392Z" fill="#6D7275"/>
</svg>
