<svg width="30" height="30" viewBox="0 0 30 30" fill="none" xmlns="http://www.w3.org/2000/svg">
<g clip-path="url(#clip0_426_118)">
<path d="M26.4844 10.3219C26.4375 10.2047 26.3883 10.0875 26.3379 9.97031C25.5818 8.22659 24.3582 6.72597 22.8023 5.63437H25.3125C25.5611 5.63437 25.7996 5.5356 25.9754 5.35978C26.1512 5.18397 26.25 4.94551 26.25 4.69687C26.25 4.44823 26.1512 4.20977 25.9754 4.03396C25.7996 3.85814 25.5611 3.75937 25.3125 3.75937H13.125C10.5329 3.76266 8.03688 4.74064 6.13252 6.49912C4.22815 8.2576 3.05475 10.668 2.84531 13.2516C2.0355 13.4529 1.31597 13.9185 0.800611 14.5748C0.285254 15.2311 0.00351741 16.0405 0 16.875C0 17.1236 0.0987721 17.3621 0.274587 17.5379C0.450403 17.7137 0.68886 17.8125 0.9375 17.8125C1.18614 17.8125 1.4246 17.7137 1.60041 17.5379C1.77623 17.3621 1.875 17.1236 1.875 16.875C1.87522 16.5331 1.9689 16.1978 2.14591 15.9054C2.32292 15.6129 2.57653 15.3744 2.8793 15.2156C3.11265 17.319 3.9897 19.299 5.39062 20.8852L6.8625 25.0055C6.99262 25.3699 7.23232 25.6852 7.54872 25.908C7.86512 26.1308 8.24271 26.2503 8.62969 26.25H10.1203C10.5071 26.25 10.8844 26.1305 11.2006 25.9077C11.5167 25.6849 11.7563 25.3697 11.8863 25.0055L12.1113 24.375H18.8262L19.0512 25.0055C19.1812 25.3697 19.4208 25.6849 19.7369 25.9077C20.0531 26.1305 20.4304 26.25 20.8172 26.25H22.3078C22.6946 26.25 23.0719 26.1305 23.3881 25.9077C23.7042 25.6849 23.9438 25.3697 24.0738 25.0055L25.9734 19.6875H26.25C26.9959 19.6875 27.7113 19.3912 28.2387 18.8637C28.7662 18.3363 29.0625 17.6209 29.0625 16.875V13.125C29.0626 12.4196 28.7976 11.7399 28.3201 11.2207C27.8425 10.7015 27.1873 10.3807 26.4844 10.3219ZM17.8125 8.43749H13.125C12.8764 8.43749 12.6379 8.33872 12.4621 8.16291C12.2863 7.98709 12.1875 7.74863 12.1875 7.49999C12.1875 7.25135 12.2863 7.0129 12.4621 6.83708C12.6379 6.66127 12.8764 6.56249 13.125 6.56249H17.8125C18.0611 6.56249 18.2996 6.66127 18.4754 6.83708C18.6512 7.0129 18.75 7.25135 18.75 7.49999C18.75 7.74863 18.6512 7.98709 18.4754 8.16291C18.2996 8.33872 18.0611 8.43749 17.8125 8.43749ZM21.0938 15C20.8156 15 20.5437 14.9175 20.3125 14.763C20.0812 14.6085 19.901 14.3889 19.7945 14.1319C19.6881 13.8749 19.6603 13.5922 19.7145 13.3194C19.7688 13.0466 19.9027 12.796 20.0994 12.5994C20.296 12.4027 20.5466 12.2688 20.8194 12.2145C21.0922 12.1603 21.3749 12.1881 21.6319 12.2945C21.8889 12.401 22.1085 12.5812 22.263 12.8125C22.4175 13.0437 22.5 13.3156 22.5 13.5937C22.5 13.9667 22.3518 14.3244 22.0881 14.5881C21.8244 14.8518 21.4667 15 21.0938 15Z" fill="#6D7275"/>
</g>
<defs>
<clipPath id="clip0_426_118">
<rect width="30" height="30" fill="white"/>
</clipPath>
</defs>
</svg>
