<svg width="30" height="30" viewBox="0 0 30 30" fill="none" xmlns="http://www.w3.org/2000/svg">
<g clip-path="url(#clip0_386_37)">
<path d="M15.0015 6C11.0015 6 8.50146 8 7.50146 12C9.00146 10 10.7515 9.25 12.7515 9.75C13.8927 10.035 14.7077 10.8625 15.6115 11.78C17.0827 13.2725 18.784 15 22.5015 15C26.5015 15 29.0015 13 30.0015 9C28.5015 11 26.7515 11.75 24.7515 11.25C23.6102 10.965 22.7952 10.1375 21.8915 9.22C20.4215 7.7275 18.7202 6 15.0015 6ZM7.50146 15C3.50146 15 1.00146 17 0.00146484 21C1.50146 19 3.25147 18.25 5.25147 18.75C6.39272 19.035 7.20771 19.8625 8.11146 20.78C9.58271 22.2725 11.284 24 15.0015 24C19.0015 24 21.5015 22 22.5015 18C21.0015 20 19.2515 20.75 17.2515 20.25C16.1102 19.965 15.2952 19.1375 14.3915 18.22C12.9215 16.7275 11.2202 15 7.50146 15Z" fill="#5465FF"/>
</g>
<defs>
<clipPath id="clip0_386_37">
<rect width="30" height="30" fill="white"/>
</clipPath>
</defs>
</svg>
