<svg width="30" height="30" viewBox="0 0 30 30" fill="none" xmlns="http://www.w3.org/2000/svg">
<g clip-path="url(#clip0_386_39)">
<mask id="mask0_386_39" style="mask-type:luminance" maskUnits="userSpaceOnUse" x="0" y="0" width="30" height="30">
<path d="M0 0H30V30H0V0Z" fill="white"/>
</mask>
<g mask="url(#mask0_386_39)">
<path d="M29.2863 1.09658e-06H0.712501C0.52342 0.000332238 0.342195 0.0756769 0.208612 0.209495C0.0750276 0.343313 8.08553e-07 0.524669 1.09852e-06 0.713751V29.2875C-0.000163568 29.3813 0.0181857 29.4742 0.0539967 29.5608C0.0898077 29.6475 0.142376 29.7263 0.208686 29.7926C0.274997 29.8589 0.353746 29.9114 0.440416 29.9473C0.527087 29.9831 0.619974 30.0014 0.713751 30.0012H29.2875C29.3812 30.0012 29.474 29.9828 29.5606 29.9469C29.6472 29.911 29.7259 29.8585 29.7922 29.7922C29.8585 29.7259 29.911 29.6472 29.9469 29.5606C29.9828 29.474 30.0012 29.3812 30.0012 29.2875V0.712501C30.0011 0.61877 29.9825 0.525989 29.9464 0.439456C29.9104 0.352922 29.8577 0.274331 29.7913 0.208169C29.7249 0.142008 29.6461 0.089571 29.5595 0.0538534C29.4728 0.0181358 29.38 -0.0001632 29.2863 1.09658e-06ZM17.8575 16.0325H14.2863V27.1425H11.4288V16.0325H7.8575V13.5713H17.8575V16.0325ZM18.6575 26.5075V23.5387C18.6575 23.5387 20.28 24.7613 22.2263 24.7613C24.1725 24.7613 24.0975 23.4887 24.0975 23.3137C24.0975 21.4675 18.5825 21.4675 18.5825 17.375C18.5825 11.81 26.6188 14.0063 26.6188 14.0063L26.5188 16.6513C26.5188 16.6513 25.1713 15.7525 23.6488 15.7525C22.1263 15.7525 21.5775 16.4775 21.5775 17.25C21.5775 19.2463 27.1425 19.0475 27.1425 23.065C27.1425 29.2525 18.6575 26.5088 18.6575 26.5088V26.5075Z" fill="#6D7275"/>
</g>
</g>
<defs>
<clipPath id="clip0_386_39">
<rect width="30" height="30" fill="white"/>
</clipPath>
</defs>
</svg>
