<svg width="30" height="30" viewBox="0 0 30 30" fill="none" xmlns="http://www.w3.org/2000/svg">
<g clip-path="url(#clip0_386_22)">
<mask id="mask0_386_22" style="mask-type:luminance" maskUnits="userSpaceOnUse" x="3" y="0" width="25" height="21">
<path d="M3.62158 0.0485229H27.7978V20.9463H3.62158V0.0485229Z" fill="white"/>
</mask>
<g mask="url(#mask0_386_22)">
<path d="M15.7069 0.0505371L27.7908 20.9465H3.62207L15.7069 0.0505371Z" fill="#5465FF"/>
</g>
<mask id="mask1_386_22" style="mask-type:luminance" maskUnits="userSpaceOnUse" x="0" y="22" width="30" height="8">
<path d="M0 22.9523H30V30H0V22.9523Z" fill="white"/>
</mask>
<g mask="url(#mask1_386_22)">
<path d="M9.79051 24.5362C8.21598 24.5362 7.08067 25.567 7.08067 27.1115C7.08067 28.657 8.35684 29.6868 9.93254 29.6868C10.8839 29.6868 11.7225 29.3088 12.2414 28.6725L11.1511 28.0397C10.8628 28.3565 10.425 28.5405 9.93231 28.5405C9.24957 28.5405 8.66903 28.1826 8.45387 27.6105H12.4502C12.4814 27.4502 12.4996 27.2847 12.4996 27.1106C12.4996 25.567 11.3662 24.5362 9.79051 24.5362ZM8.44285 26.6107C8.62051 26.0402 9.10848 25.6814 9.79051 25.6814C10.4735 25.6814 10.9607 26.0402 11.1382 26.6107H8.44285ZM8.11988 22.9633L4.16832 29.8296L0.215117 22.9633H1.69731L4.16762 27.2543L6.63652 22.9633H8.11988ZM-5.23691 22.2473L0.0330079 31.4034H-10.5068L-5.23691 22.2473ZM18.2327 27.1115C18.2327 27.9703 18.7921 28.5424 19.6591 28.5424C20.2469 28.5424 20.6873 28.2743 20.9142 27.8383L22.0092 28.4718C21.5561 29.2301 20.7056 29.6868 19.6591 29.6868C18.0834 29.6868 16.949 28.657 16.949 27.1115C16.949 25.567 18.0843 24.536 19.6591 24.536C20.7056 24.536 21.5543 24.993 22.0092 25.751L20.9142 26.3845C20.6873 25.9486 20.2469 25.6814 19.6591 25.6814C18.7931 25.6814 18.2327 26.2537 18.2327 27.1115ZM29.9953 22.9631V29.5432H28.7118V22.9633L29.9953 22.9631ZM25.1468 24.5362C23.572 24.5362 22.4367 25.567 22.4367 27.1115C22.4367 28.657 23.715 29.6868 25.2895 29.6868C26.2408 29.6868 27.0794 29.3088 27.5986 28.6725L26.5073 28.0397C26.219 28.3565 25.7812 28.5405 25.2895 28.5405C24.6065 28.5405 24.0262 28.1826 23.8101 27.6105H27.8062C27.8374 27.4502 27.8566 27.2847 27.8566 27.1106C27.8566 25.567 26.7222 24.5362 25.1468 24.5362ZM23.7991 26.6107C23.9777 26.0402 24.4638 25.6814 25.1468 25.6814C25.8297 25.6814 26.3177 26.0402 26.4944 26.6107H23.7991ZM16.5218 24.6799V26.066C16.3738 26.0211 16.2203 25.9974 16.0657 25.9957C15.2371 25.9957 14.6393 26.5675 14.6393 27.4265V29.5429H13.3556V24.6797H14.6393V25.9954C14.6393 25.2684 15.4818 24.6799 16.5218 24.6799Z" fill="#5465FF"/>
</g>
</g>
<defs>
<clipPath id="clip0_386_22">
<rect width="30" height="30" fill="white"/>
</clipPath>
</defs>
</svg>
