<svg width="32" height="32" viewBox="0 0 32 32" fill="none" xmlns="http://www.w3.org/2000/svg">
<path d="M10.457 11.092L16.014 13.839V18.307L10.457 15.382V11.092Z" fill="#6D7275"/>
<path d="M16.3711 13.839V18.307L21.3151 15.814V11.354L16.3711 13.839Z" fill="#6D7275"/>
<path d="M10.7031 10.797L16.1861 13.58L21.0821 11.064L15.7771 8.38898L10.7031 10.797Z" fill="#6D7275"/>
<path d="M18.957 15.829L24.515 18.575V23.043L18.957 20.118V15.829Z" fill="#6D7275"/>
<path d="M24.8711 18.575V23.043L29.8151 20.55V16.09L24.8711 18.575Z" fill="#6D7275"/>
<path d="M19.2031 15.546L24.6871 18.329L29.5831 15.812L24.3641 13.346L19.2031 15.546Z" fill="#6D7275"/>
<path d="M2.18994 15.496L7.74794 18.243V22.711L2.18994 19.786V15.496Z" fill="#6D7275"/>
<path d="M8.104 18.243V22.711L13.048 20.218V15.758L8.104 18.243Z" fill="#6D7275"/>
<path d="M2.43604 15.213L7.92004 17.997L12.816 15.48L7.59704 13.014L2.43604 15.213Z" fill="#6D7275"/>
<path d="M10.875 16.296L16.432 19.042V23.511L10.875 20.585V16.296Z" fill="#6D7275"/>
<path d="M16.7891 19.042V23.511L21.7331 21.017V16.557L16.7891 19.042Z" fill="#6D7275"/>
<path d="M11.1211 16.001L16.6051 18.784L21.5011 16.267L16.1961 13.593L11.1211 16.001Z" fill="#6D7275"/>
</svg>
